<svg width="24" height="24" viewBox="0 0 24 24" fill="none" xmlns="http://www.w3.org/2000/svg">
<path d="M8.40241 12.0112C8.40194 12.2512 8.4856 12.4837 8.63886 12.6684L13.7791 18.829C13.9536 19.0387 14.2043 19.1706 14.4761 19.1956C14.748 19.2206 15.0187 19.1368 15.2286 18.9625C15.4385 18.7882 15.5706 18.5378 15.5956 18.2663C15.6207 17.9948 15.5367 17.7244 15.3622 17.5148L10.7566 12.0112L15.1978 6.50773C15.2831 6.40271 15.3469 6.28186 15.3854 6.15214C15.4239 6.02242 15.4363 5.88638 15.422 5.75184C15.4077 5.6173 15.3668 5.48692 15.3019 5.36819C15.237 5.24946 15.1492 5.14471 15.0435 5.05998C14.9378 4.96595 14.8138 4.89473 14.6793 4.8508C14.5447 4.80686 14.4026 4.79114 14.2617 4.80464C14.1208 4.81813 13.9842 4.86055 13.8604 4.92922C13.7367 4.99789 13.6285 5.09135 13.5426 5.20373L8.57718 11.3644C8.44814 11.5544 8.38661 11.7822 8.40241 12.0112V12.0112Z" fill="#1F1F1F"/>
</svg>
