<svg width="current" height="current" viewBox="0 0 24 24" fill="none" xmlns="http://www.w3.org/2000/svg">
<path d="M8.63523 4.5398C8.99301 4.2342 9.45813 3.97534 10.0488 3.97534H13.9512C14.5419 3.97534 15.007 4.2342 15.3648 4.5398C15.6966 4.82327 15.98 5.18646 16.2094 5.4805L16.2299 5.50682C16.4848 5.83337 16.6822 6.08179 16.8892 6.25855C17.0802 6.4217 17.2248 6.47534 17.3659 6.47534H19.8049C20.0494 6.47534 20.5661 6.53013 21.0475 6.8384C21.5803 7.17966 22 7.79172 22 8.72534V19.7253C22 20.1728 21.8037 20.7087 21.4738 21.1314C21.1254 21.5778 20.5647 21.9753 19.8049 21.9753H4.19512C3.43531 21.9753 2.87459 21.5778 2.52619 21.1314C2.19633 20.7087 2 20.1728 2 19.7253V8.72534C2 7.8809 2.35966 7.28074 2.85295 6.91669C3.30893 6.58018 3.83413 6.47534 4.19512 6.47534H6.63415C6.7752 6.47534 6.91984 6.4217 7.11084 6.25855C7.31778 6.08179 7.51523 5.83337 7.7701 5.50682L7.79064 5.48049C8.02003 5.18646 8.30337 4.82327 8.63523 4.5398Z" fill="#555555"/>
<circle cx="12" cy="13.9753" r="5" fill="white"/>
<circle cx="12" cy="13.9753" r="3" fill="#858585"/>
<circle cx="19" cy="9.97534" r="1" fill="#FFC42C"/>
</svg>
