<svg width="current" height="current" viewBox="0 0 18 18" fill="none" xmlns="http://www.w3.org/2000/svg">
<circle cx="9" cy="9" r="8" fill="#C0C0C0"/>
<path d="M5.75641 6.83256C5.45887 6.53501 5.45887 6.0526 5.75641 5.75506C6.05396 5.45752 6.53637 5.45752 6.83391 5.75506L12.2214 11.1425C12.5189 11.4401 12.5189 11.9225 12.2214 12.22C11.9238 12.5176 11.4414 12.5176 11.1439 12.22L5.75641 6.83256Z" fill="white"/>
<path d="M11.1439 5.75506C11.4414 5.45752 11.9238 5.45752 12.2214 5.75506C12.5189 6.0526 12.5189 6.53501 12.2214 6.83256L6.83391 12.22C6.53637 12.5176 6.05396 12.5176 5.75641 12.22C5.45887 11.9225 5.45887 11.4401 5.75641 11.1425L11.1439 5.75506Z" fill="white"/>
</svg>
