<svg width="current" height="current" viewBox="0 0 current current" fill="none" xmlns="http://www.w3.org/2000/svg">
<path d="M14.2661 2.1318C14.1999 2.10664 14.1259 2.1167 14.0676 2.15863C14.0676 2.15863 6.04784 7.82869 5.85881 7.95866C5.82731 7.98047 5.79186 7.9964 5.76666 8.02826C5.71782 8.09031 5.70207 8.17333 5.72412 8.25047L8.68013 18.3882C8.71636 18.5131 8.64075 18.6414 8.51945 18.6657C7.98228 18.7714 7.44039 19.043 6.97647 19.4464C5.76981 20.497 5.40277 22.1498 6.1589 23.13C6.53303 23.6147 7.11746 23.8637 7.8027 23.8293C8.04608 23.8176 8.29182 23.7698 8.53363 23.6893C8.95029 23.5518 9.35671 23.3178 9.7206 23.0009C10.665 22.1783 11.1226 20.97 10.8642 19.9864C10.8627 19.9788 10.8611 19.9713 10.8587 19.9637L8.5226 11.9517C8.49582 11.8603 8.5289 11.7605 8.60452 11.7068L14.0376 7.86559C14.1511 7.78509 14.3054 7.84295 14.3456 7.9813L16.0304 13.7595C16.0666 13.8845 15.991 14.0128 15.8697 14.0371C15.3325 14.1427 14.7906 14.4144 14.3267 14.8177C13.7509 15.3192 13.3453 15.9707 13.1854 16.6524C13.0192 17.3593 13.1342 18.0159 13.5083 18.5014C13.8825 18.986 14.4669 19.2351 15.1521 19.2007C15.8138 19.168 16.4951 18.8737 17.07 18.3722C18.027 17.5396 18.4823 16.3179 18.2058 15.3284C18.205 15.3251 18.2042 15.3209 18.2027 15.3175L14.4039 2.28441C14.3834 2.21313 14.3314 2.15611 14.2653 2.1318H14.2661ZM13.6005 5.42215L13.7218 5.83889C13.7486 5.93029 13.7155 6.03007 13.6399 6.08374L8.21227 9.9426C8.09885 10.0231 7.94448 9.96524 7.90352 9.82689L7.77671 9.39169C7.74993 9.30029 7.78301 9.20051 7.85862 9.14685L13.2917 5.30643C13.4052 5.22593 13.5595 5.28379 13.5997 5.42215H13.6005Z" fill="#555555"/>
</svg>
