<svg width="current" height="current" viewBox="0 0 74 74" fill="none" xmlns="http://www.w3.org/2000/svg">
<path fill-rule="evenodd" clip-rule="evenodd" d="M22.3882 69C28.0571 69 33.1269 66.4004 36.5 62.3135C39.8731 66.4004 44.9429 69 50.6118 69C60.7673 69 69 60.6576 69 50.3667C69 44.86 66.6427 39.9112 62.8949 36.5C66.6427 33.0888 69 28.14 69 22.6333C69 12.3424 60.7673 4 50.6118 4C44.9429 4 39.8731 6.59955 36.5 10.6865C33.1269 6.59955 28.0571 4 22.3882 4C12.2327 4 4 12.3424 4 22.6333C4 28.14 6.35731 33.0888 10.1051 36.5C6.35731 39.9112 4 44.86 4 50.3667C4 60.6576 12.2327 69 22.3882 69Z" fill="current"/>
</svg>
